<svg xmlns="http://www.w3.org/2000/svg" viewBox="0 0 1000 770.21"><defs><style>.cls-1{opacity:0.2;}.cls-2{fill:#000072;}.cls-3{fill:#9e9e9e;}.cls-4{fill:#8e8fb3;}.cls-5{opacity:0.15;}.cls-6{fill:#686868;}.cls-7{fill:#fff;}.cls-8{fill:#3a3a3a;}.cls-9{fill:#e8e8e8;}.cls-10{opacity:0.5;}.cls-11{fill:#f27e80;}.cls-12{fill:#ff5c64;}.cls-13{fill:#68d8ff;}.cls-14{fill:#4ca9fc;}.cls-15{fill:#69f1ff;}.cls-16{opacity:0.3;}</style></defs><g id="Layer_2" data-name="Layer 2"><g id="Layer_1-2" data-name="Layer 1"><g class="cls-1"><ellipse class="cls-2" cx="582.73" cy="728.41" rx="410.58" ry="41.8"/></g><path class="cls-3" d="M890.23,734.35H497.62c-109.34,0-166.7-55.51-189.51-126.11C284.17,534.15,344.94,421,344.94,421s146.7,5.43,260.29,13.83c89.84,6.64,112.54,16,145.69,46.52,52.27,48.15,51.3,120.13,51.3,120.13s61.66-.41,118.23,15.2C987.14,635.09,1001.1,734.35,890.23,734.35Z"/><path class="cls-4" d="M890.23,734.35H497.63c-109.35,0-166.71-55.51-189.52-126.11-20-62,19.22-151.25,32.58-178.82,2.62-5.39,4.25-8.42,4.25-8.42s128.2,4.75,237.72,12.23c7.63.51,15.18,1,22.57,1.6,89.84,6.64,112.54,16,145.69,46.53,52.27,48.15,51.3,120.11,51.3,120.11A517.42,517.42,0,0,1,866,606a404.55,404.55,0,0,1,54.49,10.69C987.14,635.09,1001.1,734.35,890.23,734.35Z"/><g class="cls-5"><path class="cls-2" d="M755.67,734.35h-258c-109.35,0-166.71-55.51-189.52-126.11-20-62,19.22-151.25,32.58-178.82,2.62-5.39,4.25-8.42,4.25-8.42s128.2,4.75,237.72,12.23c11.47,18,21,38.54,15.55,51.38-16.52,38.89-148.35,72.16-166.72,120.06-15.63,40.75,17.46,69.22,53.65,75.78,108.94,19.78,160.52-119.17,199.67-85.31C707.45,614.72,735.79,681.49,755.67,734.35Z"/></g><path class="cls-6" d="M721.44,734.35H497.63c-109.35,0-166.71-55.51-189.52-126.11-20-62,19.22-151.25,32.58-178.82,99.43,11.72,201,51.68,204.55,72.11,1.38,7.89-1.47,16.91-5.46,27.24-43.7,22.92-97.09,46.68-108.29,75.9-15.63,40.75,17.46,69.22,53.65,75.78,32.54,5.92,60-2.35,83.48-15.92,52,33.75,134.81,37.25,134.81,37.25Z"/><path class="cls-7" d="M890.23,734.35H857.77C871.48,714,887.82,672.74,866,606a404.55,404.55,0,0,1,54.49,10.69C987.14,635.09,1001.1,734.35,890.23,734.35Z"/><g class="cls-5"><path class="cls-2" d="M890.23,734.35H857.77C871.48,714,887.82,672.74,866,606c6.14.8,12.52,1.74,19,2.86,19.29,13.53,49.08,33.3,52.91,75.64.84,9.29,13,12.48,18.07,4.68,5.3-8.09,9.81-19.5,10.31-35.13C983,689.1,965.09,734.35,890.23,734.35Z"/></g><path class="cls-2" d="M926.93,709.34a40.07,40.07,0,0,0,4.65.48c1.6.08,3.21,0,4.8,0a40.29,40.29,0,0,0,13.54-3.14c.68-.31,1.34-.68,2-1a12.61,12.61,0,0,0,1.92-1.11,32.56,32.56,0,0,0,6.69-5.54l.27-.27a6.62,6.62,0,1,1,9.38,9.34,6.28,6.28,0,0,1-.74.64A44.63,44.63,0,0,1,959,714.86a19.49,19.49,0,0,1-2.81,1.06c-1,.3-1.89.63-2.84.88a51,51,0,0,1-5.77,1.1,50.3,50.3,0,0,1-11.43.14c-1.88-.21-3.73-.48-5.56-.87a44.06,44.06,0,0,1-5.55-1.52,3.29,3.29,0,0,1,1.59-6.36Z"/><path class="cls-2" d="M937.61,658.35a84.42,84.42,0,0,1,8.83-.16,82.85,82.85,0,0,1,8.83.76,66.63,66.63,0,0,1,9,2,45.27,45.27,0,0,1,9,3.87l0,0a6.63,6.63,0,1,1-6.55,11.52,7,7,0,0,1-1.08-.77,33.44,33.44,0,0,0-5.71-4,55.78,55.78,0,0,0-6.93-3,76.9,76.9,0,0,0-7.57-2.2,78.47,78.47,0,0,0-7.79-1.42l-.16,0a3.3,3.3,0,0,1,.16-6.57Z"/><path class="cls-7" d="M721.44,734.35H497.63c-109.35,0-166.71-55.51-189.52-126.11-20-62,19.22-151.25,32.58-178.82,99.43,11.72,201,51.67,204.54,72.11,4.66,26.55-38.56,65.8-11.48,125.12,31.64,69.31,169.68,75.13,169.68,75.13Z"/><g class="cls-5"><path class="cls-2" d="M721.44,734.35H497.63c-109.35,0-166.71-55.51-189.52-126.11-20-62,19.22-151.25,32.58-178.82,99.43,11.72,201,51.68,204.55,72.11,1.38,7.89-1.47,16.91-5.46,27.24-43.7,22.92-97.09,46.68-108.29,75.9-15.63,40.75,17.46,69.22,53.65,75.78,32.54,5.92,60-2.35,83.48-15.92,52,33.75,134.81,37.25,134.81,37.25Z"/></g><path class="cls-8" d="M890.23,740.94H497.62c-52.85,0-97-12.74-131.11-37.86-30.19-22.22-51.95-53.44-64.67-92.81-24.52-75.89,34.75-187.66,37.29-192.39l1.94-3.62,4.11.16c1.47.05,148.12,5.52,260.53,13.83,91.89,6.8,115.66,16.93,149.67,48.26,45.06,41.49,52.15,99,53.24,118.44,17.41.34,66.81,2.47,113.59,15.38,35.79,9.88,60.37,43.22,55.94,75.9C976.41,699.06,964.93,740.94,890.23,740.94ZM348.88,427.75c-9.88,19.71-54.95,115.16-34.5,178.46,17.92,55.45,64.25,121.54,183.24,121.54H890.23c43.2,0,71.18-16.18,74.86-43.29,3.12-23-13.38-52.31-46.39-61.42-55-15.18-115.83-15-116.44-15l-6.73,0,.1-6.72c0-.68.22-69.69-49.18-115.19-31.89-29.37-53.12-38.25-141.71-44.8C503.23,433.9,373.68,428.71,348.88,427.75Z"/><path class="cls-2" d="M890.23,740.94H497.62c-52.85,0-97-12.74-131.11-37.86-30.19-22.22-51.95-53.44-64.67-92.81-24.52-75.89,34.75-187.66,37.29-192.39l1.94-3.62,4.11.16c1.47.05,148.12,5.52,260.53,13.83,91.89,6.8,115.66,16.93,149.67,48.26,45.06,41.49,52.15,99,53.24,118.44,17.41.34,66.81,2.47,113.59,15.38,35.79,9.88,60.37,43.22,55.94,75.9C976.41,699.06,964.93,740.94,890.23,740.94ZM348.88,427.75c-9.88,19.71-54.95,115.16-34.5,178.46,17.92,55.45,64.25,121.54,183.24,121.54H890.23c43.2,0,71.18-16.18,74.86-43.29,3.12-23-13.38-52.31-46.39-61.42-55-15.18-115.83-15-116.44-15l-6.73,0,.1-6.72c0-.68.22-69.69-49.18-115.19-31.89-29.37-53.12-38.25-141.71-44.8C503.23,433.9,373.68,428.71,348.88,427.75Z"/><path class="cls-4" d="M992.55,297.87c-.13,1-.28,2-.43,3-.46,2.87-1,5.63-1.7,8.29-15.54,59.81-89.1,52.56-90.5-13.61-1-47.1-22.75-62.08-43.19-59.21a39,39,0,0,0-9.31,2.55,44.46,44.46,0,0,0-17.65,13.4,40.91,40.91,0,0,0-8.1,17.42c-2.38,12.29-1.4,24.6,1.92,36.91,7,25.94,24.52,51.89,43.47,77.65,5.43,7.38,11,14.71,16.4,22.06a128.66,128.66,0,0,1,14.83,25.41,110.65,110.65,0,0,1,9.43,44,105.41,105.41,0,0,1-6.53,36.69c-20.5,55.73-87.33,93.74-169.69,64.74L740.23,505c16.26,10.93,32.68,14.9,47.21,14.34,1.7,0,3.38-.18,5-.36h0c.58-.07,1.16-.13,1.7-.23,21.7-2.94,38.1-15.84,41.74-29.25,11.55-42.29-47.36-114.66-66.11-155.33-34.92-75.77-6-146.61,56-171A128,128,0,0,1,853,155.8a137.77,137.77,0,0,1,16-1.57c4-.16,7.91-.16,11.7,0C963.4,158.33,999.14,243.61,992.55,297.87Z"/><g class="cls-5"><path class="cls-2" d="M901.19,512.46c-20.5,55.73-87.33,93.74-169.69,64.74L740.23,505c16.26,10.93,32.68,14.9,47.21,14.34C807.72,548.24,870.94,561.46,901.19,512.46Z"/></g><g class="cls-5"><path class="cls-2" d="M796.08,289.32c12.75,47.15,53.18,81.66,71,95-18.95-25.75-36.45-51.71-43.47-77.63-3.33-12.32-4.3-24.63-1.91-36.91a40.62,40.62,0,0,1,8.1-17.42c6.78-8.61,16.71-14.54,27-16,20.42-2.87,42.18,12.1,43.17,59.21,1.4,66.17,75,73.43,90.5,13.61.69-2.65,1.25-5.43,1.7-8.29-11.13,12.07-40.35,34.64-61.89,18-30.31-23.36-4.61-76.38-44-104.73C856.23,192.6,779.54,228.18,796.08,289.32Z"/></g><path class="cls-6" d="M835.06,216.93c.75.55,8.53-3.08,8.47-2.15-.24,4.09-.56,12.3,3.89,24.13l.13,0c.59-.25,1.17-.48,1.77-.67s1-.36,1.56-.52.84-.26,1.27-.37.79-.21,1.19-.3a32.83,32.83,0,0,1,3.4-.64c20.43-2.87,42.2,12.1,43.18,59.2,1.4,66.17,75,73.43,90.51,13.61.68-2.66,1.23-5.42,1.69-8.29-11.13,12.07-40.34,34.64-61.89,18-30.31-23.36-4.6-76.39-44-104.74-12.53-9-33.16-8.06-51.77.53C834.4,215.79,834.56,216.57,835.06,216.93Z"/><path class="cls-7" d="M847.42,238.91a38.16,38.16,0,0,1,9.32-2.54c20.43-2.87,42.2,12.1,43.18,59.2,1.4,66.17,75,73.43,90.51,13.61.68-2.66,1.23-5.42,1.69-8.29.14-1,.29-2,.42-3,6.6-54.26-29.14-139.54-111.83-143.6-3.79-.21-7.7-.21-11.7,0a140,140,0,0,0-16,1.57c-4.62,4.22-15.36,19.37-16.53,33.38-.14,1.73,7.61-3,7.28-1.14-1.11,6.3-11.93,26.53-8.68,28.89.74.55,8.52-3.07,8.47-2.15C843.3,218.87,843,227.08,847.42,238.91Z"/><g class="cls-5"><path class="cls-2" d="M835.06,216.93c.75.55,8.53-3.08,8.47-2.15-.24,4.09-.56,12.3,3.89,24.13l.13,0c.59-.24,1.17-.46,1.77-.67s1-.36,1.56-.52.84-.26,1.27-.37.8-.22,1.19-.3a32.83,32.83,0,0,1,3.4-.64c20.43-2.87,42.2,12.1,43.18,59.2,1.4,66.17,75,73.43,90.51,13.61.68-2.66,1.23-5.42,1.69-8.29-11.13,12.07-40.34,34.64-61.89,18-30.31-23.36-4.6-76.39-44-104.74-12.53-9-33.16-8.06-51.77.53C834.4,215.79,834.56,216.57,835.06,216.93Z"/></g><path class="cls-2" d="M787.12,593.75a174.45,174.45,0,0,1-57.8-10.33A6.59,6.59,0,0,1,733.7,571c58.57,20.64,116.53,6.7,147.65-35.51,27.6-37.41,26.38-85.38-3.16-125.18L872,402c-32.27-43.23-65.64-87.94-56.81-133.53,4.45-23,27.15-40.84,49.63-38.91,9.47.81,40.45,7.94,41.68,65.87.68,32.29,19,45.87,34.51,47.68,16.29,1.91,35.94-8.36,43-35.6,7.2-27.72.15-73.54-27.25-107.47-15.28-18.93-42.86-41.1-87.51-39.23-39.85,1.67-73.46,20.23-92.2,50.9-20.45,33.46-20.91,77.08-1.28,119.67,5.2,11.3,13.85,25.53,23,40.59,24.6,40.45,52.47,86.3,43.48,119.22-3.44,12.61-15.61,24.18-31.77,30.2-23.55,8.78-50.51,4.79-74-10.94a6.59,6.59,0,1,1,7.34-10.95c19.88,13.34,42.49,16.82,62,9.54,12.07-4.5,21.36-12.87,23.67-21.32,7.49-27.45-20-72.61-42-108.9-9.36-15.4-18.21-29.94-23.73-41.92-21.5-46.65-20.77-94.79,2-132.06,21.08-34.49,58.58-55.34,102.9-57.2,50.16-2.11,81.13,22.83,98.32,44.12,27,33.47,39.27,82.43,29.75,119.06-9.07,34.92-35.3,48-57.3,45.39-22.4-2.62-45.36-22.35-46.17-60.51-.66-31.66-11.73-51.48-29.61-53-15.79-1.36-32.39,11.87-35.57,28.28-7.72,39.87,23.88,82.2,54.43,123.13l6.19,8.31c32.63,44,33.89,99.25,3.19,140.87-16.19,22-39.21,37.62-66.56,45.31A141.46,141.46,0,0,1,787.12,593.75Z"/><path class="cls-4" d="M906.49,725.62c-19.18,16.76-54.38,2.92-80.54-9-.27.14-.53.31-.79.46-28,16.3-77.47,25.87-112,12.62-77.63-29.76-49.75-140.16-32.43-158.19L691,475.84l3-28.36c123.16,36.78,116.47,157.75,116.47,157.75a58.36,58.36,0,0,1,7.09-1.17,105.62,105.62,0,0,1,69.11,16.3c13.13,8.52,22.24,18.17,28.19,28.17v0C932.94,678.81,922,712.08,906.49,725.62Z"/><g class="cls-5"><path class="cls-2" d="M906.49,725.62c-19.18,16.76-54.38,2.92-80.54-9-.27.14-.53.31-.79.46-28,16.3-77.47,25.87-112,12.62-77.63-29.76-49.75-140.16-32.43-158.19L691,475.84l5.84-7.28s19.94,28,12.32,90.15c-1.68,13.71-25.11,45.68-28,62.67-15.32,89.31,66.54,91.55,96.35,87.51,37.22-5,66.81-42,66.81-42s1.83,22.5,15.19,37c17,18.46,67.64-1.3,55.43-55.3C932.94,678.81,922,712.08,906.49,725.62Z"/></g><path class="cls-9" d="M906.49,725.62c-19.18,16.76-54.38,2.92-80.54-9-.27.14-.53.31-.79.46,6.75-10.05,17.3-28.43,19.44-47.67.91,6.27,4.23,22.9,14.88,34.45,17,18.46,67.64-1.3,55.43-55.3.41.69.81,1.4,1.21,2.09.75,1.4,1.48,2.8,2.12,4.22.33.69.63,1.39.94,2.09a.06.06,0,0,0,0,0c.28.69.56,1.4.82,2.09s.53,1.4.78,2.11v0c.24.69.46,1.4.67,2.1s.41,1.36.59,2.06c0,0,0,.08,0,.11.18.68.34,1.37.51,2.06s.25,1.12.36,1.68c.18.84.33,1.68.46,2.52.1.6.2,1.17.27,1.77C926.63,695.48,917.78,715.77,906.49,725.62Z"/><path class="cls-7" d="M906.49,725.62c-19.18,16.76-54.38,2.92-80.54-9-.27.14-.53.31-.79.46,9.77-14.55,27.46-46.45,16.21-73.3-10.64-25.36-19-33.15-23.76-39.71a105.62,105.62,0,0,1,69.11,16.3C939.65,654.66,927.14,707.59,906.49,725.62Z"/><g class="cls-5"><path class="cls-2" d="M906.49,725.62c-19.18,16.76-54.38,2.92-80.54-9-.27.14-.53.31-.79.46,6.75-10.05,17.3-28.43,19.44-47.67.91,6.27,4.23,22.9,14.88,34.45,17,18.46,67.64-1.3,55.43-55.3.41.69.81,1.4,1.21,2.09.79,1.4,1.5,2.82,2.12,4.22.33.69.63,1.39.94,2.09a.06.06,0,0,0,0,0c.28.69.56,1.4.82,2.09s.53,1.4.78,2.11v0c.24.69.46,1.4.67,2.1s.41,1.36.59,2.06c0,0,0,.08,0,.11.18.68.34,1.37.51,2.06s.25,1.12.36,1.68c.18.84.33,1.68.46,2.52.1.6.2,1.17.27,1.77C926.63,695.48,917.78,715.77,906.49,725.62Z"/></g><path class="cls-2" d="M683.06,573.78a39.28,39.28,0,0,0-4.14,7.32,83.94,83.94,0,0,0-3.17,8.34,152.92,152.92,0,0,0-4.56,17.5,174.18,174.18,0,0,0-3.39,35.91,122.17,122.17,0,0,0,5.26,34.88,73.91,73.91,0,0,0,17.07,29.39,71.37,71.37,0,0,0,29,17.71c11,3.53,22.94,4.75,34.85,4.46a157.74,157.74,0,0,0,35.56-5.12c11.58-3.07,23-7.31,33-13.23h0a6.65,6.65,0,0,1,6.08-.32c10.81,4.92,21.67,9.5,32.69,12.66a92.66,92.66,0,0,0,16.47,3.27,41.59,41.59,0,0,0,15.41-1.11,23.93,23.93,0,0,0,6.43-2.92,22.3,22.3,0,0,0,2.78-2.13l1.35-1.28,1.3-1.39a47.44,47.44,0,0,0,4.61-6.3,56.8,56.8,0,0,0,3.58-7.15,58.86,58.86,0,0,0,3.57-31.79,61.94,61.94,0,0,0-13.74-29.15,92.44,92.44,0,0,0-26-21,98.07,98.07,0,0,0-31.8-11A102.18,102.18,0,0,0,828.49,610q-4.23,0-8.42.43c-1.39.13-2.77.3-4.13.51l-2,.33c-.63.11-1.39.27-1.79.36h0a6.65,6.65,0,0,1-8-5,6.91,6.91,0,0,1-.17-1.8c.07-1.78.06-4,0-6.06s-.17-4.2-.32-6.31c-.3-4.22-.77-8.44-1.39-12.63a175,175,0,0,0-5.57-24.82,152.62,152.62,0,0,0-22.19-45.29A141,141,0,0,0,738.23,475a171.93,171.93,0,0,0-46.07-21.2h0a6.59,6.59,0,1,1,3.79-12.63A185.07,185.07,0,0,1,745.53,464a154.19,154.19,0,0,1,39.64,38,165.88,165.88,0,0,1,24.13,49.19,188.08,188.08,0,0,1,6,26.71c.66,4.52,1.17,9.06,1.5,13.63.16,2.29.28,4.58.35,6.89s.08,4.52,0,7.15l-8.19-6.76c1.06-.25,1.77-.39,2.63-.55l2.43-.4c1.62-.24,3.22-.44,4.82-.59q4.8-.46,9.6-.49a114.8,114.8,0,0,1,19.06,1.48,111.4,111.4,0,0,1,36.06,12.48c2.78,1.56,5.53,3.19,8.16,5,1.31.91,2.63,1.79,3.93,2.72l3.81,2.92a96,96,0,0,1,13.85,13.51,75,75,0,0,1,16.6,35.37,72,72,0,0,1-4.38,39,71.27,71.27,0,0,1-4.49,9,61,61,0,0,1-6,8.24l-1.78,1.9-1.92,1.82a36.17,36.17,0,0,1-4.37,3.36,37.6,37.6,0,0,1-9.92,4.53,54.57,54.57,0,0,1-20.34,1.59,105.07,105.07,0,0,1-18.87-3.73c-12.12-3.48-23.48-8.31-34.55-13.33l6.1-.33c-11.54,6.78-23.85,11.3-36.41,14.64a170.33,170.33,0,0,1-38.56,5.55c-13.06.3-26.37-1-39.24-5.1a94.08,94.08,0,0,1-18.44-8.28,81.74,81.74,0,0,1-16.11-12.51,80.08,80.08,0,0,1-12.48-16.17,91.94,91.94,0,0,1-8.16-18.5,118.75,118.75,0,0,1-5.15-39.14,155,155,0,0,1,5.93-38.39,128.43,128.43,0,0,1,6.65-18.27,91,91,0,0,1,4.61-8.72,37.54,37.54,0,0,1,6.36-8.17,3.3,3.3,0,0,1,4.87,4.41Z"/><path class="cls-4" d="M706.89,533.87a96.26,96.26,0,0,1-18.63,38.85,113.93,113.93,0,0,1-35.71,30s-2.64,39.38-31.95,61.3c-15.86,11.86-62.51,18.28-80.16-18.53-8.93-18.65-10.68-57.17,5.84-87.69,10.57-19.54,28.62-35.78,57.07-41.42l-14.86-75.68C678.15,421.56,719.67,476.14,706.89,533.87Z"/><g class="cls-5"><path class="cls-2" d="M709.15,515.36a94.36,94.36,0,0,1-2.26,18.52,96.33,96.33,0,0,1-18.62,38.84,113.75,113.75,0,0,1-35.73,30s-2.63,39.38-31.95,61.32c-15.85,11.85-62.5,18.27-80.15-18.54a70.81,70.81,0,0,1-5.63-20.24c.31.76.64,1.49,1,2.2,17.65,36.81,64.3,30.38,80.17,18.52,29.29-21.92,18.73-54.25,21.35-64.07s24.21-13.28,46.31-27.21c10.9-6.87,22-23.46,25.52-39.26C709.13,515.39,709.13,515.37,709.15,515.36Z"/></g><path class="cls-9" d="M672.09,589.39l-.18.17c-.56.46-1.11.92-1.65,1.35-.71.58-1.39,1.12-2.08,1.65s-1.25,1-1.86,1.41-1.2.89-1.8,1.31-1,.69-1.43,1c-.08.06-.18.11-.26.18l-1.62,1.09a80.33,80.33,0,0,1-8.67,5.12s-2.63,39.38-31.95,61.32c-15.85,11.85-62.5,18.27-80.15-18.54-.16-.33-.31-.68-.46-1s-.31-.69-.46-1.06a51.1,51.1,0,0,1-1.85-5.09c-.16-.53-.33-1.07-.49-1.61-.28-1-.56-2.06-.81-3.15-.18-.74-.35-1.5-.51-2.26a4.65,4.65,0,0,1-.15-.76c-.16-.75-.29-1.53-.44-2.32v-.05c-.17-1-.33-1.93-.46-2.92.31.76.64,1.49,1,2.2,17.65,36.81,64.3,30.38,80.17,18.52,29.29-21.92,18.73-54.25,21.35-64.07a8.79,8.79,0,0,1,2.13-3.72C651.67,589.92,652.79,598.19,672.09,589.39Z"/><path class="cls-7" d="M672.1,589.39a103.83,103.83,0,0,1-19.55,13.31s-2.64,39.38-31.95,61.3c-15.86,11.86-62.51,18.28-80.16-18.53-8.93-18.65-10.68-57.17,5.84-87.69,18.54-7.81,52.69-8.53,83.18,12.27C652.05,585.46,648.56,600.14,672.1,589.39Z"/><g class="cls-5"><path class="cls-2" d="M672.09,589.39l-.18.17c-.56.46-1.11.92-1.65,1.35-.71.58-1.39,1.12-2.08,1.65s-1.25,1-1.86,1.41-1.2.89-1.8,1.31-1,.69-1.43,1c-.08.06-.18.11-.26.18l-1.62,1.09a80.33,80.33,0,0,1-8.67,5.12s-2.63,39.38-31.95,61.32c-15.85,11.85-62.5,18.27-80.15-18.54-.16-.33-.31-.68-.46-1s-.31-.69-.46-1.06a51.1,51.1,0,0,1-1.85-5.09c-.16-.53-.33-1.07-.49-1.61-.28-1-.56-2.06-.81-3.15-.18-.74-.35-1.5-.51-2.26a4.65,4.65,0,0,1-.15-.76c-.16-.75-.29-1.53-.44-2.32v-.05c-.17-1-.33-1.93-.46-2.92.31.76.64,1.49,1,2.2,17.65,36.81,64.3,30.38,80.17,18.52,29.29-21.92,18.73-54.25,21.35-64.07a8.79,8.79,0,0,1,2.13-3.72C651.67,589.92,652.79,598.19,672.09,589.39Z"/></g><path class="cls-2" d="M587.12,434.24a172.34,172.34,0,0,1,35.5-4h4.52l4.52.25c3,.1,6,.56,9,.88a106.84,106.84,0,0,1,17.88,4,84.91,84.91,0,0,1,32.15,18.36A77.91,77.91,0,0,1,711,485a89.26,89.26,0,0,1,4.33,36.65c-.09,1.54-.27,3.07-.5,4.58s-.36,3-.68,4.55l-.87,4.51-1.21,4.44-1.21,4.45c-.48,1.46-1.06,2.88-1.59,4.32l-1.63,4.31c-.61,1.41-1.31,2.77-2,4.16a111.09,111.09,0,0,1-21.06,29.73,136.21,136.21,0,0,1-13.65,12c-2.43,1.79-4.89,3.56-7.45,5.21-1.28.83-2.58,1.62-3.9,2.41s-2.6,1.5-4.24,2.32l3.71-5.5v0c-.1,1.13-.19,2-.32,2.92s-.24,1.84-.39,2.74c-.27,1.81-.64,3.58-1,5.36-.79,3.54-1.66,7.06-2.79,10.5a103.43,103.43,0,0,1-8.72,20c-1,1.56-1.83,3.18-2.87,4.71L639.85,654a82.18,82.18,0,0,1-7.37,8.37l-2,2c-.67.65-1.42,1.21-2.13,1.82-1.48,1.2-2.79,2.38-4.43,3.58a47.64,47.64,0,0,1-10.53,5.5,73.09,73.09,0,0,1-22,4.59A68.4,68.4,0,0,1,569,677.5a53.1,53.1,0,0,1-28.68-19.07,61.85,61.85,0,0,1-6.09-9.87A76.54,76.54,0,0,1,528.05,627a118.5,118.5,0,0,1,8.32-63.79,94.37,94.37,0,0,1,11.07-18.86A82.24,82.24,0,0,1,563,528.84a78.13,78.13,0,0,1,19-10.6,90.75,90.75,0,0,1,20.75-5.12,3.3,3.3,0,0,1,1.37,6.44l-.09,0a108.17,108.17,0,0,0-18.2,7.18l-4.23,2.31-4,2.6a75,75,0,0,0-7.51,5.84,82.15,82.15,0,0,0-21.51,30.84,112.57,112.57,0,0,0-6.73,56.57,64.18,64.18,0,0,0,4.92,17.63,48,48,0,0,0,4.55,7.58,41.58,41.58,0,0,0,5.94,6.35,41.09,41.09,0,0,0,15.47,8.12,55.34,55.34,0,0,0,18.07,1.92,59.67,59.67,0,0,0,18-3.64,35,35,0,0,0,7.57-3.91c1.11-.82,2.34-1.93,3.52-2.87.58-.5,1.21-1,1.76-1.49l1.63-1.65a70.59,70.59,0,0,0,6.15-7l2.69-3.84c.88-1.28,1.62-2.68,2.45-4a90,90,0,0,0,7.58-17.43c1-3,1.77-6.15,2.47-9.26.3-1.56.64-3.13.87-4.69.13-.78.25-1.56.34-2.33s.18-1.59.24-2.16h0v-.06a6.74,6.74,0,0,1,3.71-5.43c.93-.47,2.19-1.18,3.3-1.83s2.29-1.38,3.42-2.11c2.27-1.46,4.47-3,6.65-4.65a123.12,123.12,0,0,0,12.21-10.71,97.82,97.82,0,0,0,18.56-26.18c.57-1.21,1.19-2.4,1.72-3.62l1.41-3.75c.45-1.25,1-2.48,1.38-3.75l1-3.86,1.05-3.86.76-3.94c.3-1.31.4-2.64.6-4s.36-2.65.43-4a76,76,0,0,0-3.64-31.22,64.89,64.89,0,0,0-16.83-25.93A72,72,0,0,0,654.58,448a94.08,94.08,0,0,0-15.67-3.52c-2.7-.27-5.36-.7-8.09-.78l-4.07-.23h-4.09a159.3,159.3,0,0,0-32.79,3.7,6.59,6.59,0,1,1-2.76-12.89Z"/><path class="cls-4" d="M660.5,363.91C664,491.7,516,527,447,550.05l-89.27,11.41c-46.89-3.25-127-3.11-185.61-36.24a144.48,144.48,0,0,1-37.91-30.33,129.09,129.09,0,0,1-19.86-30.44A145.85,145.85,0,0,1,105.26,439c-.9-3.49-1.71-7.08-2.4-10.78a201.37,201.37,0,0,1-3.33-35.37c-.12-11,3.46-49.36,10.16-87.31,2.28-12.92,4.92-25.81,7.9-37.55C92.3,198.39,74.2,109,94.48,74.79c13.19-22.24,58.48-7.4,130.28,39.78C268.39,88.31,331.59,79,341.32,77.82s73.22-8.18,122,6.27C521,20.38,561.09-5.36,579.45,12.84c28.22,28,33.18,119.08,26.19,192.8,23,41.81,45.29,101.94,48.87,116.31A195.06,195.06,0,0,1,660.5,363.91Z"/><g class="cls-10"><path class="cls-7" d="M606,94.62c-4.46-28.54-12.26-51.87-24.26-63.77-18.36-18.21-58.46,7.54-116.1,71.25-48.81-14.45-112.32-7.55-122-6.27s-72.93,10.49-116.56,36.75C155.26,85.4,110,70.56,96.78,92.79c-8.63,14.54-10.31,39.08-7.45,67.83-5.56-36.37-5.23-68.33,5.15-85.83,13.19-22.24,58.48-7.4,130.28,39.78C268.39,88.31,331.59,79,341.32,77.82s73.22-8.18,122,6.27C521,20.38,561.09-5.36,579.45,12.84,593.9,27.17,602.25,58,606,94.62Z"/></g><path class="cls-7" d="M660.5,363.91C664,491.7,516,527,447,550.05l-89.27,11.41c-46.89-3.25-127-3.11-185.61-36.24a144.48,144.48,0,0,1-37.91-30.33,129.09,129.09,0,0,1-19.86-30.44A145.85,145.85,0,0,1,105.26,439c121.29,79.91,194.8,27.73,220.92-48.48,10.08-29.42,36.56-35.51,48.2-37s38.8-2.25,55.94,23.69C475.39,445.36,561.45,477.34,660.5,363.91Z"/><g class="cls-5"><path class="cls-2" d="M654,411.38c-29.07,89.74-147.49,118.73-207,138.67l-89.27,11.41c-46.89-3.25-127-3.11-185.61-36.24a144.48,144.48,0,0,1-37.91-30.33,128.65,128.65,0,0,1-11.68-15.56,174.75,174.75,0,0,0,20.54,13.55c44.6,25.23,188.14,22.43,253.06,14.14S617.63,458.22,654,411.38Z"/></g><path class="cls-2" d="M197.05,246.28c-3.94-4.69,12-53.2,54.66-44.93,15.39,3,18.61,17.2,7.56,21.73-10.53,4.32-15.74,2.59-31.87,10.69C218.26,238.36,201,251,197.05,246.28Z"/><path class="cls-2" d="M523.29,204.61c2.63-5.53-24.95-48.48-64.21-29.74-14.14,6.75-13.69,21.32-1.86,22.93,11.28,1.53,15.89-1.46,33.55,2.33C500.76,202.28,520.66,210.15,523.29,204.61Z"/><path class="cls-11" d="M165,177.15C147.79,200.92,139,232.21,136.83,229a9.94,9.94,0,0,1-.67-1.13c-5-9.24-16.17-47-20.47-81.36-.68-5.54-1.16-10.45-1.41-14.8-.71-11.74,0-19.42,1.43-24.45,1.78-6.15,7.21-8.66,12.48-7.33,14,3.55,55,23.67,69.35,38.08C200.1,140.54,182.18,153.39,165,177.15Z"/><path class="cls-12" d="M165,177.15C147.79,200.92,139,232.21,136.83,229a9.94,9.94,0,0,1-.67-1.13c2.15-18.59,11.2-45,18.28-64.22,9.68-26.21-10.39-43.54-26.4-47.46-5.49-1.35-10.61,8-13.76,15.52-.71-11.74,0-19.42,1.43-24.45,1.78-6.15,7.21-8.66,12.48-7.33,14,3.55,55,23.67,69.35,38.08C200.1,140.54,182.18,153.39,165,177.15Z"/><path class="cls-2" d="M137.2,236.69a8,8,0,0,1-6.56-3.5c-5.63-8.26-17.9-50-22.37-85.78h0c-2.42-19.36-2.34-33.18.24-42.23,2.81-9.71,11.85-15,21.51-12.53,14.88,3.76,57.06,24.22,72.83,40,1.68,1.68,4.94,6.37-.88,13.61-1.68,2.09-4.12,4.61-7.21,7.79a241.44,241.44,0,0,0-23.71,27.45c-9.46,13.07-16.35,28.8-20.91,39.2-5,11.52-6.75,15.4-12.22,15.91A5.79,5.79,0,0,1,137.2,236.69Zm-14.08-91.13a384.23,384.23,0,0,0,14.72,66c4.79-10.85,11.65-25.72,21.08-38.75A256.59,256.59,0,0,1,184,143.66c1.35-1.39,2.79-2.87,4-4.17-16.14-13-50.3-29.45-61.67-32.32-1.75-.45-2.91.28-3.45,2.14-1.36,4.78-2.44,15,.22,36.25Z"/><path class="cls-11" d="M537.64,129.55c22.61,18.68,39,46.78,40.27,43.08a11.66,11.66,0,0,0,.37-1.26c2.52-10.21,3.83-49.56-.64-83.89-.74-5.54-1.51-10.41-2.36-14.69C573,61.25,570.4,54,567.75,49.49a10,10,0,0,0-13.92-4c-12.65,7-47.28,36.74-57.55,54.29C494.44,102.94,515,110.87,537.64,129.55Z"/><path class="cls-12" d="M537.64,129.55c22.61,18.68,39,46.78,40.27,43.08a11.66,11.66,0,0,0,.37-1.26c-6.76-17.45-22.17-40.77-33.84-57.57-16-22.93-.89-44.75,13.62-52.56,5-2.69,12.3,5.11,17.22,11.55C573,61.25,570.4,54,567.75,49.49a10,10,0,0,0-13.92-4c-12.65,7-47.28,36.74-57.55,54.29C494.44,102.94,515,110.87,537.64,129.55Z"/><path class="cls-2" d="M577.21,180.48c-4.44,0-7.26-3.59-14.26-12.47s-17.65-22.41-30.08-32.68A241.19,241.19,0,0,0,503,114.71c-3.79-2.3-6.79-4.12-8.94-5.72-7.46-5.55-5.47-10.91-4.27-13,11.28-19.27,47-49.67,60.42-57,8.75-4.8,18.82-2,24,6.7,4.79,8.13,8.34,21.48,10.86,40.83h0c4.67,35.78,3.29,79.23-.09,88.64a7.93,7.93,0,0,1-6.18,5.19A9.73,9.73,0,0,1,577.21,180.48ZM505.88,98.9c1.49.94,3.26,2,4.91,3a258.45,258.45,0,0,1,31.61,21.86C554.8,134,565.18,146.7,572.55,156a384.07,384.07,0,0,0-2.34-67.55c-2.78-21.26-6.38-30.85-8.91-35.15-1-1.66-2.29-2.06-3.86-1.2C547.15,57.74,518.22,82.22,505.88,98.9Z"/><path class="cls-2" d="M446,547c18.43-7.8,37.19-14.13,55.57-21.18s36.6-14.23,54-23c4.32-2.23,8.66-4.43,12.86-6.86s8.35-4.91,12.48-7.42a212.24,212.24,0,0,0,23.27-17.06l2.76-2.3c.89-.79,1.74-1.63,2.62-2.44l5.22-4.9,4.88-5.21c.8-.88,1.66-1.71,2.42-2.62l2.24-2.76A130.06,130.06,0,0,0,640,427.78l3.06-6.36c.25-.53.52-1.06.76-1.6l.62-1.65,1.24-3.3,1.25-3.3c.21-.55.43-1.09.62-1.65l.47-1.7,1.91-6.8.48-1.69.34-1.74.65-3.48c.39-2.32,1-4.61,1.22-7l.71-7.06.35-3.53.06-3.56.11-7.12a26.61,26.61,0,0,0-.1-3.57l-.23-3.56L653,352c-.29-2.37-.66-4.74-1-7.11l-1-7.11-1.52-7.06L648,323.68l-.92-3.29L646,317c-3-9.2-6.42-18.46-9.94-27.62S628.85,271,625,262c-7.73-18.09-16-35.95-25.36-53.05l-1-1.86.19-2.1a614.38,614.38,0,0,0,2.1-85,399.94,399.94,0,0,0-4.12-42.07c-2.17-13.83-5.23-27.54-10.22-40.07a67.35,67.35,0,0,0-9.44-16.9,15.4,15.4,0,0,0-1.48-1.71l-.75-.83a6.08,6.08,0,0,0-.72-.72,10.32,10.32,0,0,0-1.34-1.09l-.7-.49c-.23-.15-.49-.25-.73-.39a14,14,0,0,0-6.93-1.42c-5.36.16-11.54,2.51-17.37,5.48a128.53,128.53,0,0,0-17.16,10.92,317.48,317.48,0,0,0-31.75,27.55C488.06,68.09,478.3,78.43,468.76,89l-3.05,3.37-4.43-1.27a214.51,214.51,0,0,0-29-6c-9.86-1.37-19.87-2-29.89-2.43s-20.11-.3-30.17.13-20.16,1.17-30,2.38-19.8,3.13-29.62,5.25S293,95,283.4,97.91s-19.11,6.07-28.31,9.87a212.34,212.34,0,0,0-26.55,13.07l-4,2.35-3.81-2.51c-11.9-7.81-23.94-15.36-36.22-22.36a318.2,318.2,0,0,0-37.65-18.68,130.44,130.44,0,0,0-19.36-6.25c-6.38-1.4-12.94-2.12-18.15-.93a13.86,13.86,0,0,0-6.32,3.1c-.2.2-.42.36-.61.56l-.55.64a11.32,11.32,0,0,0-1,1.39,5.57,5.57,0,0,0-.51.88l-.52,1a18.23,18.23,0,0,0-1,2A67.07,67.07,0,0,0,94,100.76c-1.68,13.37-1.19,27.41.19,41.33a400.65,400.65,0,0,0,6.59,41.75,614.94,614.94,0,0,0,23.41,81.75l.74,2-.53,2.08c-4.77,18.87-8.26,38.26-11.2,57.71Q111,342,109.29,356.67c-1.11,9.76-2.1,19.58-2.67,29.23-.15,2.41-.22,4.77-.23,7q0,3.62.19,7.22c.2,4.8.56,9.59,1.11,14.34a164.75,164.75,0,0,0,5.58,28,126.15,126.15,0,0,0,27,49.11c12.55,14,28.38,25.07,45.64,33.32s35.93,13.9,54.93,18,38.48,6.5,58,8.48l29.45,3c9.85,1.05,19.74,2.19,29.62,3.86a3.22,3.22,0,0,1-.43,6.4h0c-19.82.65-39.73.67-59.71-.66a421.11,421.11,0,0,1-59.73-8.17c-19.76-4.24-39.37-10.11-57.94-18.91s-35.94-20.8-49.9-36.37a139.62,139.62,0,0,1-30-54.25A179.5,179.5,0,0,1,94.1,416c-.59-5.1-1-10.21-1.21-15.32-.11-2.55-.18-5.11-.21-7.66,0-2.74.08-5.34.23-7.88.58-10.16,1.57-20.08,2.68-30s2.4-19.85,3.87-29.74c3-19.78,6.45-39.5,11.36-59.11l.2,4.1A629.18,629.18,0,0,1,86.9,186.75,415.85,415.85,0,0,1,80,143.51c-1.46-14.61-2.08-29.45-.23-44.59a81.31,81.31,0,0,1,6-22.79,28.89,28.89,0,0,1,1.37-2.8l.74-1.39a12.18,12.18,0,0,1,.85-1.44,24.11,24.11,0,0,1,2.15-3l1.21-1.39c.43-.45.9-.85,1.36-1.28a28.18,28.18,0,0,1,12.71-6.44,44.08,44.08,0,0,1,12.76-.87,76.42,76.42,0,0,1,11.75,1.74,143.49,143.49,0,0,1,21.59,6.89,333.36,333.36,0,0,1,39.48,19.46c12.66,7.19,25,14.87,37.07,22.79l-7.81-.16c18.46-10.91,38.19-18.55,58.2-24.54,10-3,20.12-5.6,30.3-7.81s20.39-4.11,30.89-5.5,20.84-2,31.27-2.42,20.85-.45,31.29,0c20.88.77,41.89,3.21,62.49,9.14L458,79.21C467.68,68.5,477.66,58,488.11,47.84A332.5,332.5,0,0,1,521.42,19.1,143.16,143.16,0,0,1,540.58,7a77,77,0,0,1,10.93-4.63A43.89,43.89,0,0,1,564.06,0a28.16,28.16,0,0,1,13.89,3c.54.3,1.1.57,1.63.89L581.1,5a24.14,24.14,0,0,1,2.81,2.31,10.93,10.93,0,0,1,1.18,1.18l1.07,1.15a28,28,0,0,1,2,2.37,81.23,81.23,0,0,1,11.5,20.53c5.6,14.18,8.72,28.7,11,43.19a416.7,416.7,0,0,1,4.17,43.59,629.65,629.65,0,0,1-2.35,87l-.82-4c9.63,17.75,18,35.94,25.83,54.35q5.87,13.8,11.21,27.81c3.58,9.35,7,18.71,10.14,28.39l1.14,3.68,1.06,3.88,1.6,7.5,1.58,7.49,1.08,7.62c.35,2.54.73,5.08,1,7.63l.49,7.71.23,3.85a31.21,31.21,0,0,1,.1,3.87l-.14,7.75-.07,3.88-.39,3.87-.8,7.74c-.29,2.58-.91,5.12-1.36,7.68l-.74,3.83-.37,1.92-.53,1.88-2.14,7.52-.53,1.88c-.21.62-.46,1.22-.68,1.83L658,419.55l-1.4,3.65-.7,1.83c-.26.59-.56,1.17-.84,1.76l-3.4,7a142.87,142.87,0,0,1-17.29,25.85l-2.47,3c-.83,1-1.75,1.89-2.62,2.84L624,471.15l-5.63,5.27c-.94.87-1.87,1.77-2.83,2.62l-3,2.46a225.77,225.77,0,0,1-24.73,18c-4.34,2.63-8.64,5.36-13.1,7.75s-8.91,4.81-13.41,7.11c-9.06,4.45-18.21,8.7-27.56,12.39-4.65,1.93-9.36,3.64-14,5.44s-9.45,3.33-14.21,4.87c-19,6.24-38.27,11.31-57.5,16h0a3.21,3.21,0,0,1-2-6.08Z"/><path class="cls-9" d="M431.3,397.43s3.78,29.49-22.8,31.3c-18.83,1.3-24.67-13.59-25.11-14.79-.13,1.27-2,17.15-20.59,20.63C336.61,439.5,332.85,410,332.85,410L377,365.53l.45-.06Z"/><path class="cls-7" d="M431.06,397.66s-5.74,23.54-26.43,20.87c-23.56-3-24.24-30.59-24.24-30.59l-.84.11s6.16,26.87-15.92,35.64c-19.39,7.7-30.77-13.68-30.77-13.68s-12.06-49.66,42.56-56.64S431.06,397.66,431.06,397.66Z"/><g class="cls-5"><path class="cls-2" d="M429.13,403c-3.07,6.77-10.24,17.37-24.49,15.53-23.58-3-24.26-30.59-24.26-30.59l-.83.11s6.16,26.87-15.92,35.64c-13.34,5.3-22.91-3.18-27.57-9A37.07,37.07,0,0,0,348.53,412c36.45-14.49,27.29-50.85,27.29-50.85l1.4-.18s.1,37.5,39,42.53A37.13,37.13,0,0,0,429.13,403Z"/></g><path class="cls-2" d="M336.16,408.25c.82,1,1.88,2.21,2.91,3.22a38.8,38.8,0,0,0,3.21,3,24.11,24.11,0,0,0,6.93,4.14,17,17,0,0,0,7.1,1.06,18.85,18.85,0,0,0,3.61-.79c.59-.23,1.21-.35,1.82-.6l1.79-.86a20.17,20.17,0,0,0,10.13-11.3,33,33,0,0,0,2-8.32c.2-1.47.26-3,.32-4.48s0-3.12-.06-4.4l0-.33a3.74,3.74,0,0,1,7.31-1.35,35.38,35.38,0,0,1,1.25,5.45,39.43,39.43,0,0,1,.5,5.46,36.14,36.14,0,0,1-1.35,11.21,28.92,28.92,0,0,1-14.83,18.22l-2.68,1.31a27.87,27.87,0,0,1-2.88,1,30.78,30.78,0,0,1-6.12,1.14,25.72,25.72,0,0,1-12.26-2.53,30.05,30.05,0,0,1-9.28-7.18,38.77,38.77,0,0,1-3.36-4.48,33.83,33.83,0,0,1-2.63-5,3.74,3.74,0,0,1,6.29-3.9Z"/><path class="cls-2" d="M434.7,398.55a33.28,33.28,0,0,1-1.31,5.52,39.7,39.7,0,0,1-2.14,5.17,30,30,0,0,1-7.22,9.25A25.65,25.65,0,0,1,412.79,424a29.74,29.74,0,0,1-6.21.4,27.88,27.88,0,0,1-3.05-.23l-2.92-.6a28.92,28.92,0,0,1-18.87-14A36,36,0,0,1,377.66,399a40.33,40.33,0,0,1-.87-5.41,36.48,36.48,0,0,1-.14-5.58,3.75,3.75,0,0,1,7.42-.52l.06.33c.24,1.27.63,2.87,1,4.28s.86,2.89,1.42,4.26a33.23,33.23,0,0,0,4,7.58,20.16,20.16,0,0,0,12.61,8.44l1.95.38c.65.1,1.28.06,1.91.13a18,18,0,0,0,3.69-.12,16.74,16.74,0,0,0,6.62-2.79,24.33,24.33,0,0,0,5.69-5.72,42.77,42.77,0,0,0,2.38-3.67c.74-1.24,1.46-2.71,2-3.85l.21-.44a3.74,3.74,0,0,1,7.06,2.22Z"/><path class="cls-2" d="M405.66,370.28c.81,6.44-6.87,13.18-14.09,18a27.82,27.82,0,0,1-25.16,3.16c-8.19-2.89-17.3-7.52-18.11-14C345.86,358.08,403.22,350.87,405.66,370.28Z"/><g class="cls-10"><path class="cls-7" d="M387.87,368.65c.24,1.85-2.89,3.91-5.8,5.41a14.74,14.74,0,0,1-10,1.25c-3.19-.73-6.73-1.95-7-3.8C364.42,365.91,387.17,363.05,387.87,368.65Z"/></g><ellipse class="cls-8" cx="256.51" cy="368.56" rx="44.53" ry="46.72" transform="translate(-44.63 35.47) rotate(-7.28)"/><ellipse class="cls-7" cx="263.58" cy="378.57" rx="18.85" ry="19.77" transform="matrix(0.99, -0.13, 0.13, 0.99, -45.84, 36.45)"/><ellipse class="cls-7" cx="240.45" cy="351.26" rx="10.87" ry="11.4" transform="translate(-42.57 33.3) rotate(-7.28)"/><ellipse class="cls-8" cx="495.21" cy="338.07" rx="44.53" ry="46.72" transform="translate(-38.84 65.47) rotate(-7.28)"/><ellipse class="cls-7" cx="502.28" cy="348.08" rx="18.85" ry="19.77" transform="matrix(0.99, -0.13, 0.13, 0.99, -40.05, 66.43)"/><ellipse class="cls-7" cx="479.15" cy="320.77" rx="10.87" ry="11.4" transform="translate(-36.78 63.3) rotate(-7.28)"/><path class="cls-2" d="M136.78,421.29c-1.15-.47-2.51-1-3.8-1.43s-2.62-.93-4-1.36-2.65-.86-4-1.23-2.67-.82-4-1.17c-5.43-1.41-10.87-2.76-16.39-3.74a217.56,217.56,0,0,0-33.4-3.69c-2.81-.16-5.61,0-8.42,0H58.55c-1.4,0-2.8.16-4.2.23-2.81.18-5.61.36-8.43.49l-8.39.95c-5.63.45-11.12,1.82-16.72,2.66l-2.09.35-2.06.49-4.13,1c-2.75.66-5.53,1.27-8.3,1.89l-.22.05a3.29,3.29,0,0,1-1.75-6.34c2.78-.91,5.55-1.83,8.35-2.69l4.19-1.32,2.1-.66,2.13-.51c2.85-.71,5.71-1.37,8.57-2,1.44-.31,2.85-.71,4.31-.93l4.35-.69L45,400.2q4.39-.43,8.8-.79c1.46-.11,2.93-.29,4.4-.34l4.42-.11c3,0,5.9-.22,8.84-.07l8.84.36c3,.19,5.88.54,8.82.84s5.84.83,8.76,1.26,5.8,1.1,8.69,1.75c11.55,2.67,22.69,6.37,33.32,12.36a3.29,3.29,0,0,1-2.85,5.92Z"/><path class="cls-2" d="M149.87,464c-4.8.09-9.86.37-14.78.82s-9.87,1-14.76,1.76a179.55,179.55,0,0,0-28.77,6.64,130.54,130.54,0,0,0-13.7,5.3c-2.24,1-4.39,2.12-6.6,3.18s-4.3,2.3-6.35,3.62a108.49,108.49,0,0,0-22.76,18.37l0,.05a3.3,3.3,0,0,1-5-4.28,96.79,96.79,0,0,1,23-21.63,104.65,104.65,0,0,1,13.74-7.9,118.71,118.71,0,0,1,14.62-6,141,141,0,0,1,30.66-6.75,128.84,128.84,0,0,1,31.33.24,3.3,3.3,0,0,1-.39,6.57Z"/><path class="cls-2" d="M621.16,354c8.78-8.46,18.64-14.84,29.15-20.34,2.62-1.35,5.25-2.72,8-3.87s5.38-2.45,8.17-3.42,5.52-2.11,8.32-3l8.47-2.57c2.81-.89,5.71-1.45,8.57-2.16l4.31-1c1.43-.32,2.9-.52,4.35-.78,2.9-.5,5.8-1,8.71-1.44l8.78-.87,4.38-.41c1.46-.16,2.94-.12,4.4-.19,2.94-.1,5.87-.18,8.8-.21l2.2,0,2.19.11,4.39.22c2.92.14,5.84.33,8.75.51a3.29,3.29,0,0,1-.08,6.58h-.24c-2.84.09-5.67.2-8.5.24l-4.25.09-2.12,0-2.11.19c-5.63.6-11.29.65-16.85,1.63l-8.36,1.19c-2.76.58-5.52,1.11-8.28,1.64-1.37.29-2.76.5-4.13.84L694.06,328c-2.7.75-5.47,1.29-8.14,2.15a216.44,216.44,0,0,0-31.4,12c-5.1,2.33-10,5-14.92,7.74-1.23.68-2.39,1.45-3.61,2.15s-2.41,1.43-3.58,2.19-2.35,1.51-3.48,2.31-2.32,1.59-3.33,2.34l-.2.15a3.29,3.29,0,0,1-4.24-5Z"/><path class="cls-2" d="M621.44,397.22a129.5,129.5,0,0,1,30.27-8.11,141.13,141.13,0,0,1,31.37-1.17,118.53,118.53,0,0,1,15.66,2.12A105.47,105.47,0,0,1,714,394.25a96.91,96.91,0,0,1,27.7,15.16,3.3,3.3,0,0,1-3.76,5.41l-.07-.05a108,108,0,0,0-26.65-12c-2.31-.77-4.7-1.29-7.06-1.91s-4.77-1.05-7.19-1.43a129.33,129.33,0,0,0-14.58-1.67,179.92,179.92,0,0,0-29.52.79c-4.92.51-9.83,1.2-14.73,2s-9.85,1.8-14.51,2.92l-.19.05a3.3,3.3,0,0,1-2-6.26Z"/><path class="cls-4" d="M283.67,734.35C175.41,739.73,226,612.83,226.76,610.88v0a61.44,61.44,0,0,1-12.3-3.72c-13.62-5.54-34.63-18.6-42.24-48-10.43-40.34,33.45-66.42,63.2-15.28,0,0,84.88-31.19,98.59,39.3,2.07,10.63,4.1,21.95,5.65,33.44,1.27,9.31,2.24,18.7,2.68,27.93C344.59,690.32,334,731.85,283.67,734.35Z"/><g class="cls-5"><path class="cls-2" d="M283.67,734.35C175.41,739.73,226,612.83,226.76,610.88v0a61.44,61.44,0,0,1-12.3-3.72c35.85,9.24,57,5.62,57.8,5.49-.94.67-37.11,27.53-21.27,68.6,12.6,32.67,83.51,29.38,91.35-36.75C344.59,690.32,334,731.85,283.67,734.35Z"/></g><path class="cls-7" d="M339.67,616.55c-11.78-4.86-28-8.37-48.6-5.69-41.7,5.43-64.3,0-64.3,0s-42.91-6.78-54.54-51.77a42.77,42.77,0,0,1-.08-22.67c7.22-25.17,39.7-33.16,63.28,7.39,0,0,74-27.19,94.94,26.55A72.73,72.73,0,0,1,334,583.11C336.09,593.74,338.12,605.06,339.67,616.55Z"/><g class="cls-5"><path class="cls-2" d="M330.37,570.36c-26.79-25.71-69.39-24.47-78.17-18.24-4.1,2.92.78,8.21-1.63,11.3-1.63,2.11-12.77-8.3-19.74-8.78-8.36-.59-15.48,6-16.58,2.18-1.32-4.67,8.59-23.12-12.93-30.09-8.72-2.84-20.16,3.21-29.17,9.69,7.22-25.17,39.7-33.16,63.28,7.39C235.43,543.81,309.4,516.62,330.37,570.36Z"/></g><path class="cls-2" d="M277.14,741.1c-26.58,0-45.89-8.22-57.45-24.49-22.2-31.24-8-82.41-1.62-101.15-13.91-4.34-42.62-17.63-52.21-54.72-5.6-21.64,2.78-42.46,19.91-49.5,14.2-5.83,35.08-2.11,52.55,24.71,13-3.84,47.52-11.78,73.58,2.91,15.08,8.49,24.69,23,28.59,43,9.72,49.95,16.37,105.21-8,136.36-11,14-27.29,21.67-48.46,22.72C281.66,741.05,279.38,741.1,277.14,741.1Zm-79.31-219a18.49,18.49,0,0,0-7.05,1.36c-9.41,3.87-16.61,16.8-12.16,34,10.36,40.07,47.62,46.65,49.2,46.91a6.62,6.62,0,0,1,5.06,9c-.26.64-25.26,63.58-2.43,95.66,9.76,13.72,27.55,20,52.89,18.77,17.43-.86,30.1-6.65,38.74-17.68,21.25-27.13,14.09-81.44,5.47-125.71-3.12-16-10.55-27.49-22.08-34-26.7-15.07-67.37-.5-67.78-.36a6.6,6.6,0,0,1-8-2.87C219,528.59,207.15,522.07,197.83,522.07Z"/><path class="cls-2" d="M228.27,604.44c1.52.47,3.54.95,5.37,1.36s3.8.78,5.73,1.1q5.77,1,11.68,1.54c3.93.33,7.89.62,11.86.69s7.95,0,11.94-.09h.07a3.3,3.3,0,0,1,.66,6.56c-4.07.69-8.17,1.33-12.31,1.77s-8.28.75-12.46,1-8.37.19-12.58.06c-2.11-.06-4.23-.19-6.35-.35s-4.17-.36-6.61-.75a6.61,6.61,0,0,1,2.09-13A8.63,8.63,0,0,1,228.27,604.44Z"/><path class="cls-2" d="M847.57,667.14a78.38,78.38,0,0,1-1.12,9.29c-.51,3-1.21,6-2,9a90.59,90.59,0,0,1-6.74,17.43,70.34,70.34,0,0,1-10.91,15.71l-3.39,3.51c-1.23,1.08-2.5,2.11-3.76,3.16l-1.9,1.56-2.06,1.36-4.15,2.7a6.61,6.61,0,1,1-7.2-11.08,5,5,0,0,1,.5-.29l.64-.34,3.47-1.84,1.76-.91,1.63-1.12,3.28-2.26,3-2.61A59.39,59.39,0,0,0,829.12,698a82,82,0,0,0,7.48-15c1-2.65,1.88-5.36,2.61-8.1a73.44,73.44,0,0,0,1.79-8.21l0-.2a3.29,3.29,0,0,1,6.54.71Z"/><path class="cls-2" d="M796.49,610.7l-.3.2c-.1.09-.19.17-.17.14l0,0a.58.58,0,0,1,0-.16l.19-.44.47-.94c.34-.63.72-1.26,1.1-1.89a26.53,26.53,0,0,1,2.82-3.63,15.57,15.57,0,0,1,4.42-3.39,9.08,9.08,0,0,1,4.28-.91,7.65,7.65,0,0,1,2.85.7,7.54,7.54,0,0,1,1.27.74,7,7,0,0,1,1.42,1.41c.17.25.34.5.49.76s.22.44.32.66a7.43,7.43,0,0,1,.42,1.18,9.75,9.75,0,0,1,.31,1.85,14.18,14.18,0,0,1,0,2.8,26.68,26.68,0,0,1-.89,4.59,32.83,32.83,0,0,1-3.38,8,3.38,3.38,0,0,1-6.29-1.79v-.18c.05-2.62.34-5.28.53-7.74.07-1.23.19-2.43.16-3.46a11.69,11.69,0,0,0-.08-1.25c0-.26-.25-.35.36.62a3.83,3.83,0,0,0,.7.7,3,3,0,0,0,.4.22,2.37,2.37,0,0,0,.9.21c.52,0,.54-.11.36,0a8.51,8.51,0,0,0-2.2,1.25c-.9.64-1.86,1.39-2.84,2.19l-3.93,3.08a3.29,3.29,0,0,1-3.66-5.48Z"/><path class="cls-2" d="M614.31,633.87a65.86,65.86,0,0,1,.37,12.61,51.53,51.53,0,0,1-2.34,12.71,34.11,34.11,0,0,1-6.77,12.17,30.05,30.05,0,0,1-5.65,4.87,32,32,0,0,1-6.76,3.28l0,0a6.62,6.62,0,1,1-4.51-12.44,9.51,9.51,0,0,1,1-.28,17,17,0,0,0,7.79-3.59,23.32,23.32,0,0,0,5.75-7.67,42.91,42.91,0,0,0,3.36-10.15,58.69,58.69,0,0,0,1.23-11v-.2a3.3,3.3,0,0,1,6.57-.37Z"/><path class="cls-2" d="M564.25,628.62a73.09,73.09,0,0,0,0,11.74,54,54,0,0,0,2.08,11.26,27.93,27.93,0,0,0,4.66,9.32,17.93,17.93,0,0,0,3.32,3.21,17.63,17.63,0,0,0,3.89,2,6.61,6.61,0,1,1-4.69,12.35,6.71,6.71,0,0,1-.77-.35l-.07,0a28.3,28.3,0,0,1-11.27-10.8,38.76,38.76,0,0,1-4.71-13.52,62.83,62.83,0,0,1-.68-13.35,79.15,79.15,0,0,1,1.7-13,3.3,3.3,0,0,1,6.51,1Z"/><path class="cls-2" d="M880.24,711.66a49.69,49.69,0,0,0,9.77,1.58,40.16,40.16,0,0,0,9.61-.52,25.6,25.6,0,0,0,8.23-3.13,21.48,21.48,0,0,0,5.88-5.63l.23-.32a6.62,6.62,0,0,1,10.49,8.08,6.37,6.37,0,0,1-.6.67A33.46,33.46,0,0,1,913,719.93a36.82,36.82,0,0,1-12.34,2.63,49.35,49.35,0,0,1-11.8-1.17,55.56,55.56,0,0,1-11-3.61A3.3,3.3,0,0,1,880,711.6Z"/><path class="cls-2" d="M887.94,665.2A58.78,58.78,0,0,1,898.07,663a47.19,47.19,0,0,1,10.66-.26,30.1,30.1,0,0,1,11.2,3.22,25.31,25.31,0,0,1,5.2,3.72,26.22,26.22,0,0,1,4.09,5.12l.09.14a6.63,6.63,0,0,1-11.27,7,6.56,6.56,0,0,1-.53-1.06,13.55,13.55,0,0,0-1.43-2.75,12.61,12.61,0,0,0-2.24-2.34,19,19,0,0,0-6.81-3.28,37.66,37.66,0,0,0-8.53-1.25,52.68,52.68,0,0,0-8.92.4l-.21,0a3.3,3.3,0,0,1-1.43-6.41Z"/><g class="cls-10"><path class="cls-7" d="M702.07,653.62c4.94,24.45,29.95,48.18,63.39,35.8,25.67-9.5-19.48-17.17-38.62-37.24C713.56,638.26,697.44,630.75,702.07,653.62Z"/></g><g class="cls-10"><path class="cls-7" d="M673.38,472.63c-1.28,0,5.23,17.84,1.35,40.91-1.7,10.16,17.1-1.1,15.12-18.52C688.11,479.61,674.65,472.63,673.38,472.63Z"/></g><path class="cls-8" d="M201.43,457.12c-20.33,0-36.34-4.64-47.76-13.86-36.68-29.61-35-79.32-30.82-106.32.09-.57.16-1,.2-1.28s.06-.5.1-.79a41.61,41.61,0,0,1,25.52-32,130.38,130.38,0,0,1,30.9-8.05c36.43-5.11,72.94-3.6,100.15,4.14A45,45,0,0,1,311.9,335.9l5.45,38.86a62.59,62.59,0,0,1-41.78,68,285.62,285.62,0,0,1-51,12.62A167.37,167.37,0,0,1,201.43,457.12ZM221.8,301.71a295.35,295.35,0,0,0-40.85,2.9A120.15,120.15,0,0,0,152.38,312a31.69,31.69,0,0,0-19.45,24.3l-.07.54c-.05.38-.13.91-.24,1.62-3.91,24.89-5.56,70.6,27.26,97.09,13.24,10.68,34.52,14.06,63.27,10a274.67,274.67,0,0,0,49.25-12.2,52.68,52.68,0,0,0,35.15-57.27l-5.45-38.85A35.05,35.05,0,0,0,277,308.46C261.28,304,242.21,301.71,221.8,301.71Z"/><path class="cls-13" d="M645.24,326.19c.46,20.48-3.77,42.89-18,63.12-26.2,37.26-85.6,42.95-133,40.71a80.72,80.72,0,0,1-75.94-69.43L412,315.43a80.27,80.27,0,0,0-10.4-3.83,78.52,78.52,0,0,0-72.69,15.49l6.33,45.16a81.42,81.42,0,0,1,.55,17.54,80.56,80.56,0,0,1-54.45,70.11c-44.91,15.18-103.59,26.05-139-2.56-19.25-15.54-29.48-35.92-34.68-55.73-7.27-27.85-4.62-54.57-3.06-65.18v0c.45-3.07.81-4.78.81-4.78s-22.41-19.4-.54-33.16c37-23.24,162.1-42.71,220.44,2.73a78.55,78.55,0,0,1,83.09-11.66c43.58-59.73,169.25-75.45,211.17-63.28,24.82,7.21,8.6,32,8.6,32s.82,1.55,2.1,4.38h0C634.67,272.45,644.59,297.42,645.24,326.19Z"/><path class="cls-14" d="M107.64,401.61,335.8,389.79a80.56,80.56,0,0,1-54.45,70.11c-44.91,15.18-103.59,26.05-139-2.56C123.07,441.8,112.84,421.42,107.64,401.61Z"/><path class="cls-14" d="M645.24,326.19c.46,20.48-3.77,42.89-18,63.12-26.2,37.26-85.6,42.95-133,40.71a80.53,80.53,0,0,1-71.63-52.41Z"/><path class="cls-15" d="M628.15,258.29s.82,1.55,2.1,4.38h0l-175.4,37.53c-25.22,5.39-50.93,7.78-76.71,8.29a79.23,79.23,0,0,0-9.37.74,78,78,0,0,0-9.22,1.87c-24.93,6.61-50.3,11.38-76,13.13L104.58,336.43v0c.45-3.07.81-4.78.81-4.78s-22.41-19.4-.54-33.16c37-23.24,162.1-42.71,220.44,2.73a78.55,78.55,0,0,1,83.09-11.66c43.58-59.73,169.25-75.45,211.17-63.28C644.37,233.47,628.15,258.29,628.15,258.29Z"/><path class="cls-13" d="M312.45,375.45A57.65,57.65,0,0,1,274,438.09a279.94,279.94,0,0,1-50.14,12.4c-30.16,4.23-52.72.5-67.06-11.07C114.51,405.3,127.25,341.8,128,336.29c0-.23.06-.48.1-.73a36.49,36.49,0,0,1,22.48-28.12,125,125,0,0,1,29.73-7.73c30.55-4.29,68-4.57,98.11,4A40,40,0,0,1,307,336.59Z"/><path class="cls-2" d="M201.55,480.06c-23.18,0-45.24-5.07-62.34-18.88-50.88-41.07-41.74-112.8-39.16-127.86-3.59-3.76-10.4-12.24-9.67-21.84.52-6.79,4.5-12.58,11.83-17.2,20.69-13,62.72-23.11,104.6-25.14,29.14-1.4,82.51.18,118.36,25.8a84,84,0,0,1,81.6-11.45c27.41-34.49,78.28-50.7,106.69-57.37,40.82-9.57,84-11.42,107.47-4.61,8.33,2.42,13.75,6.89,16.12,13.28,3.34,9-.88,19.05-3.29,23.66,6.62,13.77,35.15,80.22-2.47,133.7-27.73,39.43-89.94,45-137.25,42.81a85.61,85.61,0,0,1-80.59-73.68l-5.95-42.4a73.63,73.63,0,0,0-73.3,10.28l5.95,42.4a85.62,85.62,0,0,1-57.21,93C258.53,472.83,229.23,480.06,201.55,480.06Zm20.89-201.3c-47.87,0-95.36,11.56-115,23.89-4.59,2.89-7,6-7.24,9.56-.5,6.4,5.89,13.49,8.4,15.69a5,5,0,0,1,1.59,4.74c-.16.79-15.9,79.61,35.19,120.85,34,27.46,91.84,16.09,134.35,1.72a75.72,75.72,0,0,0,50.59-82.28L324,327.78a5,5,0,0,1,1.7-4.47A83.58,83.58,0,0,1,414,310.92a4.93,4.93,0,0,1,2.86,3.82l6.34,45.16a75.73,75.73,0,0,0,71.27,65.19c44.84,2.12,103.54-2.87,128.69-38.63,37.78-53.71.95-125.15.58-125.87a4.93,4.93,0,0,1,.23-5h0c1.8-2.79,6-11.37,3.76-17.39-1.24-3.32-4.38-5.68-9.6-7.19-39.62-11.51-163.64,3.66-205.8,61.44a5,5,0,0,1-6,1.6A73.94,73.94,0,0,0,328.48,305a5,5,0,0,1-6.23.13C297.49,285.82,259.85,278.76,222.44,278.76Zm-21,178.36c-20.33,0-36.34-4.64-47.76-13.86-36.68-29.61-35-79.32-30.82-106.32.09-.57.16-1,.2-1.28s.06-.5.1-.79a41.61,41.61,0,0,1,25.52-32,130.38,130.38,0,0,1,30.9-8.05c36.44-5.11,72.94-3.6,100.15,4.14A45,45,0,0,1,311.9,335.9l5.45,38.86a62.59,62.59,0,0,1-41.78,68,285.62,285.62,0,0,1-51,12.62A167.37,167.37,0,0,1,201.43,457.12ZM221.8,301.71a295.35,295.35,0,0,0-40.85,2.9A120.15,120.15,0,0,0,152.38,312a31.67,31.67,0,0,0-19.45,24.3l-.07.54c-.05.38-.13.91-.24,1.62-3.91,24.89-5.56,70.6,27.26,97.09,13.24,10.68,34.52,14.06,63.27,10a274.67,274.67,0,0,0,49.25-12.2,52.68,52.68,0,0,0,35.15-57.27l-5.45-38.85A35.05,35.05,0,0,0,277,308.46C261.28,304,242.21,301.71,221.8,301.71ZM511.72,412.37c-5.38,0-10.92-.13-16.59-.4a62.59,62.59,0,0,1-58.88-53.89l-5.45-38.86a44.92,44.92,0,0,1,20.76-44.37c24-14.93,58.71-26.43,95.15-31.54a130.25,130.25,0,0,1,31.93-.77A41.59,41.59,0,0,1,612,266.24c.16.36.27.61.37.85s.27.59.51,1.12c11.5,24.79,26.74,72.13-.37,110.69h0c-11.43,16.24-33.22,26.73-64.79,31.15A258.81,258.81,0,0,1,511.72,412.37Zm54.55-160.59a131.07,131.07,0,0,0-18.19,1.32C513,258,479.68,269,456.78,283.25a35,35,0,0,0-16.19,34.6L446,356.7a52.69,52.69,0,0,0,49.56,45.39,274.59,274.59,0,0,0,50.7-1.83c28.75-4,48.28-13.13,58.07-27.05h0c24.26-34.49,10.09-78-.51-100.84-.3-.65-.52-1.13-.65-1.44l-.26-.58a31.62,31.62,0,0,0-25.36-18A106.61,106.61,0,0,0,566.27,251.78Z"/><path class="cls-2" d="M307,336.59l5.45,38.86A57.65,57.65,0,0,1,274,438.09a293.93,293.93,0,0,1-43.25,11.32c-2.34.41-4.63.76-6.89,1.08-19.61,2.75-36,2.14-49-1.82a52.52,52.52,0,0,1-18-9.25c-.27-.21-.52-.42-.77-.64-13.81-11.43-21.6-26-25.84-40.65-8.43-29.12-2.68-58.19-2.22-61.84,0-.23.06-.48.1-.73a36.49,36.49,0,0,1,22.48-28.12,125,125,0,0,1,29.73-7.73c8.25-1.16,17-2,26-2.5,18-1,37-.35,54.54,2.58a162,162,0,0,1,17.57,3.92,37.78,37.78,0,0,1,4.52,1.6A39.89,39.89,0,0,1,307,336.59Z"/><g class="cls-16"><path class="cls-7" d="M260.8,299.79,156,438.78c-13.81-11.43-21.6-26-25.84-40.65l76.09-100.92C224.3,296.25,243.24,296.86,260.8,299.79Z"/></g><g class="cls-16"><path class="cls-7" d="M307,336.59l1.38,9.83-77.65,103c-2.34.41-4.63.76-6.89,1.08-19.61,2.75-36,2.14-49-1.82L282.89,305.31A39.89,39.89,0,0,1,307,336.59Z"/></g><path class="cls-2" d="M201.43,457.12c-20.33,0-36.34-4.64-47.76-13.86-36.68-29.61-35-79.32-30.82-106.32.09-.57.16-1,.2-1.28s.06-.5.1-.79a41.61,41.61,0,0,1,25.52-32,130.38,130.38,0,0,1,30.9-8.05c36.43-5.11,72.94-3.6,100.15,4.14A45,45,0,0,1,311.9,335.9h0l5.45,38.86a62.59,62.59,0,0,1-41.78,68,285.62,285.62,0,0,1-51,12.62A167.37,167.37,0,0,1,201.43,457.12ZM221.8,301.71a295.35,295.35,0,0,0-40.85,2.9A120.15,120.15,0,0,0,152.38,312a31.69,31.69,0,0,0-19.45,24.3l-.07.54c-.05.38-.13.91-.24,1.62-3.91,24.89-5.56,70.6,27.26,97.09,13.24,10.68,34.52,14.06,63.27,10a274.67,274.67,0,0,0,49.25-12.2,52.68,52.68,0,0,0,35.15-57.27l-5.45-38.85A35.05,35.05,0,0,0,277,308.46C261.28,304,242.21,301.71,221.8,301.71Z"/><path class="cls-2" d="M436,318.5l5.45,38.85A57.64,57.64,0,0,0,495.65,407a294.6,294.6,0,0,0,44.7-1c2.36-.25,4.66-.54,6.92-.85,19.61-2.75,35.22-7.86,46.64-15.24A52.76,52.76,0,0,0,608.7,376c.19-.27.38-.54.56-.83,10.13-14.79,13.6-31,13.65-46.18.1-30.32-13.43-56.69-14.88-60.07-.08-.21-.19-.44-.29-.67a36.51,36.51,0,0,0-29.35-20.86,125.34,125.34,0,0,0-30.71.76c-8.26,1.15-16.92,2.73-25.69,4.75-17.6,4-35.65,9.84-51.72,17.49a160.86,160.86,0,0,0-15.81,8.6,37.76,37.76,0,0,0-3.91,2.78A39.9,39.9,0,0,0,436,318.5Z"/><g class="cls-16"><path class="cls-7" d="M470.27,270.41l139,104.78c10.13-14.79,13.6-31,13.65-46.18L522,252.92C504.39,257,486.34,262.76,470.27,270.41Z"/></g><g class="cls-16"><path class="cls-7" d="M436,318.5l1.38,9.83,103,77.64c2.36-.25,4.66-.54,6.92-.85,19.61-2.75,35.22-7.86,46.64-15.24L450.55,281.79A39.9,39.9,0,0,0,436,318.5Z"/></g><path class="cls-8" d="M512,412.33q-8.07,0-16.58-.4A62.6,62.6,0,0,1,436.53,358l-5.45-38.86h0a44.94,44.94,0,0,1,20.77-44.37c24-14.93,58.71-26.43,95.14-31.54a130.27,130.27,0,0,1,31.93-.77,41.59,41.59,0,0,1,33.31,23.7c.15.33.27.61.37.85s.27.59.52,1.12c11.49,24.79,26.74,72.13-.38,110.69C601.32,395.1,579.52,405.59,548,410A259,259,0,0,1,512,412.33Zm-71.13-94.52,5.46,38.86a52.69,52.69,0,0,0,49.55,45.38,274.67,274.67,0,0,0,50.71-1.83c28.74-4,48.28-13.13,58.06-27.05,24.26-34.49,10.1-78-.5-100.84-.3-.65-.53-1.13-.66-1.44l-.27-.61a31.62,31.62,0,0,0-25.35-17.95,120.5,120.5,0,0,0-29.51.73C513.25,258,480,269,457.07,283.21a35,35,0,0,0-16.2,34.6Z"/><path class="cls-2" d="M511.72,412.37c-5.38,0-10.92-.13-16.59-.4a62.59,62.59,0,0,1-58.88-53.89l-5.45-38.86a44.92,44.92,0,0,1,20.76-44.37c24-14.93,58.71-26.43,95.15-31.54a130.25,130.25,0,0,1,31.93-.77A41.59,41.59,0,0,1,612,266.24c.16.36.27.61.37.85s.27.59.51,1.12c11.5,24.79,26.74,72.13-.37,110.69h0c-11.43,16.24-33.22,26.73-64.79,31.15A258.81,258.81,0,0,1,511.72,412.37Zm54.55-160.59a131.07,131.07,0,0,0-18.19,1.32C513,258,479.68,269,456.78,283.25a35,35,0,0,0-16.19,34.6L446,356.7a52.69,52.69,0,0,0,49.56,45.39,275.47,275.47,0,0,0,50.7-1.83c28.75-4,48.28-13.13,58.07-27.05h0c24.26-34.49,10.09-78-.51-100.84-.3-.65-.52-1.13-.65-1.44l-.26-.58a31.62,31.62,0,0,0-25.36-18A106.61,106.61,0,0,0,566.27,251.78Z"/><path class="cls-2" d="M141.44,578.93l-19.39,1.46a16.45,16.45,0,0,0-15.17,15.17L105.43,615,104,595.56A16.45,16.45,0,0,0,88.8,580.39l-19.39-1.46,19.39-1.45A16.45,16.45,0,0,0,104,562.3l1.46-19.38,1.45,19.38a16.45,16.45,0,0,0,15.17,15.18Z"/><path class="cls-2" d="M734,159.14l-22.21,1.67a18.84,18.84,0,0,0-17.38,17.38l-1.66,22.21-1.67-22.21a18.84,18.84,0,0,0-17.38-17.38l-22.21-1.67,22.21-1.67a18.84,18.84,0,0,0,17.38-17.38l1.67-22.21,1.66,22.21a18.84,18.84,0,0,0,17.38,17.38Z"/><path class="cls-2" d="M78,273.29l-12,.9a10.15,10.15,0,0,0-9.37,9.36l-.89,12-.9-12a10.15,10.15,0,0,0-9.37-9.36l-12-.9,12-.9A10.16,10.16,0,0,0,54.84,263l.9-12,.89,12A10.16,10.16,0,0,0,66,272.39Z"/></g></g></svg>